<?xml version="1.0" encoding="UTF-8" standalone="no"?>
<!-- Created with Inkscape (http://www.inkscape.org/) -->

<svg
   xmlns:dc="http://purl.org/dc/elements/1.1/"
   xmlns:cc="http://creativecommons.org/ns#"
   xmlns:rdf="http://www.w3.org/1999/02/22-rdf-syntax-ns#"
   xmlns:svg="http://www.w3.org/2000/svg"
   xmlns="http://www.w3.org/2000/svg"
   version="1.1"
   width="568.87445"
   height="290.19608"
   id="svg2"
   xml:space="preserve">
   <defs
     id="defs6"><clipPath
       id="clipPath4988-9"><path
         d="m 465.678,135.612 132.966,0 0,65.889 -132.966,0 0,-65.889 z"
         id="path4990-4" /></clipPath></defs><g
     transform="matrix(1.25,0,0,-1.25,-208.43545,459.60689)"
     id="g10"><path
       d="m 390.91248,351.85653 c -10.12521,0 -17.05755,-6.93988 -17.05755,-17.15179 0,-10.70949 6.90595,-16.49209 16.11514,-16.49209 3.96564,0 7.02281,0.72753 8.57589,1.50784 l -0.84816,3.39266 c -1.70387,-0.82554 -4.31245,-1.4136 -6.87956,-1.4136 -7.9426,0 -12.534,5.20208 -12.534,13.19368 0,8.56835 5.07391,13.4764 12.72248,13.4764 2.71413,0 4.99852,-0.64084 6.59684,-1.41361 l 1.03664,3.4869 c -1.11204,0.57298 -3.65653,1.41361 -7.72772,1.41361 z m -68.41865,-0.47121 0,-32.70147 4.24082,0 0,14.79577 12.34552,0 0,3.4869 -12.34552,0 0,10.83766 13.38216,0 0,3.58114 -17.62298,0 z m 32.23027,0 -11.12039,-32.70147 4.42931,0 3.39266,10.27222 11.49735,0 3.4869,-10.27222 4.52355,0 -11.12039,32.70147 -5.08899,0 z m 49.19357,0 0,-32.70147 4.14659,0 0,15.36121 15.83241,0 0,-15.36121 4.24083,0 0,32.70147 -4.24083,0 0,-13.66488 -15.83241,0 0,13.66488 -4.14659,0 z m -46.83756,-3.76962 0.0942,0 c 0.48252,-1.89235 0.9688,-3.80355 1.69633,-5.93715 l 3.20418,-9.42406 -9.80102,0 3.20418,9.42406 c 0.62576,1.98659 1.11958,3.9958 1.60209,5.93715 z m 12.15704,-56.9213 c -8.71914,0 -15.17273,-6.78532 -15.17273,-17.15178 0,-9.88018 6.07663,-16.58634 14.70152,-16.58634 8.3271,0 15.17273,5.91077 15.17273,17.15178 0,9.68416 -5.79391,16.58634 -14.70152,16.58634 z m 37.31926,0 c -10.12144,0 -17.05754,-6.92857 -17.05754,-17.15178 0,-10.70196 6.90595,-16.58634 16.11513,-16.58634 3.96942,0 7.02281,0.83308 8.5759,1.60209 l -0.84817,3.29842 c -1.69633,-0.82555 -4.31622,-1.31937 -6.87956,-1.31937 -7.94636,0 -12.534,5.10784 -12.534,13.09944 0,8.57212 5.07015,13.4764 12.72248,13.4764 2.71036,0 4.99852,-0.53906 6.59684,-1.31937 l 1.03665,3.39266 c -1.11204,0.58806 -3.65654,1.50785 -7.72773,1.50785 z m 58.05219,0 c -6.34428,0 -10.55494,-3.76585 -10.55494,-8.85861 0,-4.59517 3.33988,-7.44501 8.67013,-9.32982 4.40669,-1.69256 6.12563,-3.35873 6.12563,-6.40836 0,-3.29842 -2.47664,-5.65443 -6.78532,-5.65443 -2.90261,0 -5.7449,0.99518 -7.63348,2.16753 l -1.03665,-3.4869 c 1.74911,-1.15727 5.14554,-2.16753 8.29317,-2.16753 7.70134,0 11.49735,4.38784 11.49735,9.42405 0,4.79496 -2.86114,7.47517 -8.38741,9.61254 -4.49716,1.74534 -6.5026,3.26449 -6.5026,6.31412 0,2.22785 1.76418,4.90051 6.21988,4.90051 2.95161,0 5.15684,-1.02157 6.21988,-1.60209 l 1.13088,3.4869 c -1.44753,0.82932 -3.91287,1.60209 -7.25652,1.60209 z m 31.38211,0 c -10.12144,0 -17.05755,-6.92857 -17.05755,-17.15178 0,-10.70196 6.91349,-16.58634 16.11514,-16.58634 3.97695,0 7.11705,0.83308 8.67013,1.60209 l -0.9424,3.29842 c -1.69633,-0.82555 -4.31245,-1.31937 -6.87956,-1.31937 -7.9426,0 -12.534,5.10784 -12.534,13.09944 0,8.57212 5.16815,13.4764 12.81672,13.4764 2.71413,0 4.89674,-0.53906 6.5026,-1.31937 l 1.03664,3.39266 c -1.11203,0.58806 -3.65276,1.50785 -7.72772,1.50785 z m -173.49688,-0.56544 0,-32.60724 4.24082,0 0,15.26697 15.73818,0 0,-15.26697 4.33506,0 0,32.60724 -4.33506,0 0,-13.66489 -15.73818,0 0,13.66489 -4.24082,0 z m 99.04683,0 0,-32.60724 4.14659,0 0,15.26697 15.83241,0 0,-15.26697 4.24083,0 0,32.60724 -4.24083,0 0,-13.66489 -15.83241,0 0,13.66489 -4.14659,0 z m 89.4343,0 0,-32.60724 4.24082,0 0,15.26697 15.73818,0 0,-15.26697 4.24082,0 0,32.60724 -4.24082,0 0,-13.66489 -15.73818,0 0,13.66489 -4.24082,0 z m 33.4554,0 0,-19.22508 c 0,-10.12144 5.1003,-13.9476 11.78007,-13.9476 7.06804,0 12.34551,4.11266 12.34551,14.13608 l 0,19.0366 -4.33506,0 0,-19.31932 c 0,-7.21883 -3.07978,-10.4607 -7.91621,-10.4607 -4.36522,0 -7.53925,3.14763 -7.53925,10.4607 l 0,19.31932 -4.33506,0 z m 33.36116,0 0,-32.60724 18.18843,0 0,3.4869 -13.94761,0 0,29.12034 -4.24082,0 z m 24.87951,0 0,-32.60724 18.37691,0 0,3.4869 -14.13609,0 0,11.78007 12.62824,0 0,3.4869 -12.62824,0 0,10.27222 13.38216,0 0,3.58115 -17.62298,0 z M 369.04867,287.2075 c 7.0228,0 10.4607,-6.8004 10.4607,-13.28792 0,-7.41108 -3.77339,-13.57064 -10.4607,-13.57064 -6.63454,0 -10.46071,6.31789 -10.46071,13.28792 0,7.16982 3.47936,13.57064 10.46071,13.57064 z m -13.57065,-51.07839 c -1.35706,0 -2.35601,-1.13842 -2.35601,-2.45025 0,-1.34576 0.8557,-2.45026 2.26177,-2.45026 l 0.0942,0 c 1.4023,0 2.26178,1.1045 2.26178,2.45026 0,1.3646 -0.90094,2.45025 -2.26178,2.45025 z m 8.95286,0 c -1.40607,0 -2.35602,-1.13842 -2.35602,-2.45025 0,-1.34576 0.90848,-2.45026 2.26178,-2.45026 l 0.0942,0 c 1.45507,0 2.35601,1.1045 2.35601,2.45026 0,1.3646 -0.99895,2.45025 -2.35601,2.45025 z m 87.17252,-6.69108 c -10.12898,0 -17.05754,-6.9361 -17.05754,-17.15178 0,-10.7095 6.90595,-16.58634 16.11514,-16.58634 3.96941,0 7.12081,0.82932 8.67013,1.60209 l -0.94241,3.39266 c -1.7001,-0.82555 -4.30868,-1.41361 -6.87956,-1.41361 -7.94259,0 -12.53399,5.20585 -12.53399,13.19368 0,8.57212 5.07391,13.4764 12.72247,13.4764 2.7179,0 4.99475,-0.64083 6.59684,-1.41361 l 1.03665,3.4869 c -1.10827,0.58053 -3.66031,1.41361 -7.72773,1.41361 z m -62.38725,-0.28272 c -2.96293,0 -5.88438,-0.26764 -7.72773,-0.65968 l 0,-32.13604 c 1.4023,-0.19979 3.69046,-0.37696 6.59684,-0.37696 5.32648,0 9.03578,0.92356 11.30887,3.0157 1.65109,1.59832 2.73297,3.78847 2.73297,6.59684 0,4.84396 -3.59245,7.42616 -6.69108,8.19893 l 0,0.0942 c 3.43036,1.26282 5.46596,4.01465 5.46596,7.16228 0,2.56711 -1.04796,4.48585 -2.73298,5.74868 -2.03937,1.64732 -4.74219,2.35601 -8.95285,2.35601 z m -66.72232,-0.28272 0,-32.60724 18.18842,0 0,3.58114 -13.9476,0 0,29.0261 -4.24082,0 z m 25.25647,0 0,-19.22508 c 0,-10.12897 5.00606,-13.9476 11.68583,-13.9476 7.07558,0 12.43975,4.19936 12.43975,14.23032 l 0,18.94236 -4.33506,0 0,-19.31932 c 0,-7.22636 -3.07225,-10.36646 -7.91621,-10.36646 -4.35769,0 -7.63349,3.04586 -7.63349,10.36646 l 0,19.31932 -4.24082,0 z m 62.48149,0 0,-32.60724 18.37691,0 0,3.58114 -14.13608,0 0,11.68583 12.62823,0 0,3.48691 -12.62823,0 0,10.36646 13.38216,0 0,3.4869 -17.62299,0 z m 56.82706,0 0,-32.60724 4.14659,0 0,12.43976 3.10994,3.58114 10.74342,-16.0209 4.99475,0 -12.72247,18.75388 11.78007,13.85336 -5.18324,0 -9.9895,-12.25127 c -0.82554,-1.05927 -1.67371,-2.22785 -2.54449,-3.48691 l -0.18848,0 0,15.73818 -4.14659,0 z m -77.55998,-2.92146 c 4.26721,0 7.16228,-1.54554 7.16228,-5.37171 0,-3.15141 -2.61612,-5.46595 -7.06804,-5.46595 l -3.86386,0 0,10.55494 c 0.67853,0.15455 1.84334,0.28272 3.76962,0.28272 z m -3.76962,-14.04184 3.4869,0 c 4.59517,0 8.48165,-1.8622 8.48165,-6.31412 0,-4.7535 -4.02596,-6.31412 -8.38741,-6.31412 -1.50408,0 -2.7556,0.0415 -3.58114,0.18848 l 0,12.43976 z"
       id="path4982"
       style="fill:#050301;fill-opacity:1;fill-rule:nonzero;stroke:none" /><g
       transform="matrix(3.7696226,0,0,3.7696226,-1589.0865,-392.69721)"
       id="g4984"><g
         clip-path="url(#clipPath4988-9)"
         id="g4986"><g
           transform="translate(517.6064,192.3164)"
           id="g4992" /><g
           transform="translate(527.2861,189.001)"
           id="g4996" /><g
           transform="translate(529.8076,197.3789)"
           id="g5000" /><g
           transform="translate(508.2236,181.1396)"
           id="g5004" /><g
           transform="translate(516.6826,176.7559)"
           id="g5008" /><g
           transform="translate(531.4385,172.7598)"
           id="g5012" /><g
           transform="translate(534.4863,181.1396)"
           id="g5016" /><g
           transform="translate(542.1113,173.8408)"
           id="g5020" /><g
           transform="translate(555.1689,172.7598)"
           id="g5024" /><g
           transform="translate(558.2197,181.1396)"
           id="g5028" /><g
           transform="translate(567.1143,181.1396)"
           id="g5032" /><g
           transform="translate(574.8291,181.1396)"
           id="g5036" /><g
           transform="translate(585.9072,176.5391)"
           id="g5040" /><g
           transform="translate(507.1064,164.9004)"
           id="g5044" /><g
           transform="translate(518.2119,165.5039)"
           id="g5048" /><g
           transform="translate(523.8809,157.0889)"
           id="g5052" /><g
           transform="translate(534.8574,160.3008)"
           id="g5056" /><g
           transform="translate(543.3926,156.5225)"
           id="g5060" /><g
           transform="translate(545.4404,164.9004)"
           id="g5064" /><g
           transform="translate(467.2021,148.7227)"
           id="g5068"><path
             d="m 478.0625,456.78125 c -0.48,0 -0.98875,0.15625 -1.375,0.53125 -0.47875,0.45625 -0.65625,1.17375 -0.65625,1.96875 l 0,0.28125 -0.78125,0 0,0.78125 0.78125,0 0,4.875 1.03125,0 0,-4.875 1.34375,0 0,-0.78125 -1.34375,0 0,-0.3125 c 0,-0.8675 0.215,-1.625 1.09375,-1.625 0.2925,0 0.505,0.055 0.65625,0.125 l 0.125,-0.8125 c -0.1975,-0.0838 -0.51125,-0.15625 -0.875,-0.15625 z m 24.25,0.125 0,8.3125 1.03125,0 0,-8.3125 -1.03125,0 z m 15.25,0 0,3.375 -0.0312,0 c -0.2575,-0.4575 -0.82125,-0.84375 -1.6875,-0.84375 -1.37875,0 -2.57625,1.14625 -2.5625,3.03125 0,1.7175 1.07,2.875 2.4375,2.875 0.92375,0 1.62125,-0.4925 1.9375,-1.125 l 0.0625,1 0.90625,0 c -0.0338,-0.38625 -0.0312,-0.9675 -0.0312,-1.46875 l 0,-6.84375 -1.03125,0 z m 7.5625,0.3125 c -1.53125,0 -2.53125,0.89625 -2.53125,2.125 0,1.11 0.77625,1.79625 2.0625,2.25 1.0625,0.41 1.5,0.825 1.5,1.5625 0,0.79375 -0.61625,1.34375 -1.65625,1.34375 -0.7025,0 -1.3575,-0.25 -1.8125,-0.53125 l -0.25,0.875 c 0.42125,0.28 1.23875,0.5 2,0.5 1.86125,0 2.75,-1.0675 2.75,-2.28125 0,-1.15875 -0.6675,-1.795 -2,-2.3125 -1.08875,-0.42125 -1.5625,-0.795 -1.5625,-1.53125 0,-0.53625 0.39,-1.15625 1.46875,-1.15625 0.7125,0 1.24125,0.2025 1.5,0.34375 l 0.28125,-0.8125 c -0.3525,-0.19875 -0.94125,-0.375 -1.75,-0.375 z m -92.40625,0.0937 c -0.37625,0 -0.65625,0.2925 -0.65625,0.65625 0,0.35 0.26375,0.625 0.625,0.625 0.4075,0 0.6675,-0.275 0.65625,-0.625 0,-0.36375 -0.24125,-0.65625 -0.625,-0.65625 z m 22.6875,0 c -0.375,0 -0.65625,0.2925 -0.65625,0.65625 0,0.35 0.26375,0.625 0.625,0.625 0.41,0 0.66625,-0.275 0.65625,-0.625 0,-0.36375 -0.24,-0.65625 -0.625,-0.65625 z m 50.1875,0 c -0.37625,0 -0.625,0.2925 -0.625,0.65625 0,0.35 0.265,0.625 0.625,0.625 0.41125,0 0.6675,-0.275 0.65625,-0.625 0,-0.36375 -0.27,-0.65625 -0.65625,-0.65625 z m 28.71875,0 c -0.375,0 -0.65625,0.2925 -0.65625,0.65625 0,0.35 0.26375,0.625 0.625,0.625 0.41,0 0.6675,-0.275 0.65625,-0.625 0,-0.36375 -0.24,-0.65625 -0.625,-0.65625 z m -116.15625,0.0312 0,4.625 c 0,2.4475 1.22875,3.375 2.84375,3.375 1.70875,0 2.96875,-0.9875 2.96875,-3.40625 l 0,-4.59375 -1.03125,0 0,4.65625 c 0,1.74375 -0.73625,2.5 -1.90625,2.5 -1.05125,0 -1.84375,-0.73375 -1.84375,-2.5 l 0,-4.65625 -1.03125,0 z m 65.78125,0 -2.65625,7.875 1.03125,0 0.84375,-2.46875 2.78125,0 0.84375,2.46875 1.09375,0 -2.6875,-7.875 -1.25,0 z m -25.0625,0.84375 -1,0.3125 0,1.0625 -0.875,0 0,0.78125 0.875,0 0,3.09375 c 0,0.66625 0.11375,1.16375 0.40625,1.46875 0.2475,0.28 0.61625,0.4375 1.09375,0.4375 0.4,0 0.71,-0.0738 0.90625,-0.15625 l -0.0312,-0.75 c -0.15,0.0475 -0.3125,0.0625 -0.59375,0.0625 -0.5725,0 -0.78125,-0.3925 -0.78125,-1.09375 l 0,-3.0625 1.46875,0 0,-0.78125 -1.46875,0 0,-1.375 z m 25.65625,0.0625 c 0.1175,0.45125 0.26125,0.92125 0.4375,1.4375 l 0.75,2.25 -2.375,0 0.78125,-2.28125 c 0.15125,-0.48 0.2875,-0.94125 0.40625,-1.40625 z m -56,1.1875 c -0.93625,0 -1.595,0.5275 -1.875,1.0625 l -0.0312,0 -0.0625,-0.9375 -0.90625,0 c 0.0325,0.46625 0.0312,0.94625 0.0312,1.53125 l 0,4.125 1.03125,0 0,-3.40625 c 0,-0.17625 0.0462,-0.34 0.0937,-0.46875 0.175,-0.5725 0.6975,-1.0625 1.375,-1.0625 0.9725,0 1.3125,0.745 1.3125,1.65625 l 0,3.28125 1.03125,0 0,-3.375 c 0,-1.94375 -1.2175,-2.40625 -2,-2.40625 z m 14.28125,0 c -1.65125,0 -2.65625,1.32125 -2.65625,3.03125 0,1.705 1.0375,2.875 2.78125,2.875 0.90125,0 1.51125,-0.21 1.875,-0.375 L 444.65625,464.25 c -0.38875,0.165 -0.8275,0.28125 -1.5625,0.28125 -1.03,0 -1.94625,-0.5775 -1.96875,-1.96875 l 4,0 c 0.01,-0.10375 0.0312,-0.2575 0.0312,-0.46875 0,-1.04125 -0.49625,-2.65625 -2.34375,-2.65625 z m 6.125,0 c -0.69125,0 -1.305,0.45875 -1.5625,1.21875 l -0.0625,0 -0.0312,-1.09375 -0.90625,0 c 0.035,0.52625 0.0625,1.08375 0.0625,1.75 l 0,3.90625 1,0 0,-3.03125 c 0,-0.175 0.04,-0.3275 0.0625,-0.46875 0.1425,-0.77 0.65,-1.3125 1.375,-1.3125 0.14125,0 0.23625,0.007 0.34375,0.0312 l 0,-0.96875 c -0.0937,-0.025 -0.165,-0.0312 -0.28125,-0.0312 z m 3.03125,0 c -1.21375,0 -1.9375,0.74625 -1.9375,1.65625 0,0.67875 0.4825,1.2325 1.5,1.59375 0.7575,0.2825 1.0625,0.53875 1.0625,1.03125 0,0.4675 -0.37875,0.84375 -1.125,0.84375 -0.515,0 -1.03875,-0.20625 -1.34375,-0.40625 l -0.25,0.78125 c 0.39625,0.2325 0.97375,0.40625 1.59375,0.40625 1.345,0 2.09375,-0.725 2.09375,-1.71875 0,-0.8425 -0.48625,-1.31375 -1.46875,-1.6875 -0.735,-0.28125 -1.09375,-0.50125 -1.09375,-0.96875 0,-0.42125 0.36,-0.78125 0.96875,-0.78125 0.52625,0 0.93375,0.20375 1.15625,0.34375 l 0.25,-0.75 c -0.31625,-0.18625 -0.8325,-0.34375 -1.40625,-0.34375 z m 19.9375,0 c -1.56875,0 -2.8125,1.10875 -2.8125,3 0,1.79 1.18625,2.90625 2.71875,2.90625 1.37,0 2.8125,-0.9075 2.8125,-3 0,-1.73 -1.09375,-2.90625 -2.71875,-2.90625 z m 20.0625,0 c -0.92125,0 -1.6075,0.40375 -2.03125,1.09375 l -0.0312,0 -0.0312,-0.96875 -0.9375,0 c 0.025,0.53875 0.0625,1.1175 0.0625,1.84375 l 0,6.125 1,0 0,-3.0625 0.0312,0 c 0.33875,0.5625 1.0025,0.875 1.75,0.875 1.33375,0 2.5625,-0.99625 2.5625,-3.03125 0,-1.72 -1.005,-2.875 -2.375,-2.875 z m 6.65625,0 c -0.92375,0 -1.61,0.40375 -2.03125,1.09375 l -0.0625,-0.96875 -0.90625,0 c 0.025,0.53875 0.0312,1.1175 0.0312,1.84375 l 0,6.125 1.03125,0 0,-3.0625 c 0.33875,0.5625 1.00125,0.875 1.75,0.875 1.33375,0 2.5625,-0.99625 2.5625,-3.03125 0,-1.72 -1.00875,-2.875 -2.375,-2.875 z m 11.46875,0 c -1.64875,0 -2.65625,1.32125 -2.65625,3.03125 0,1.705 1.04,2.875 2.78125,2.875 0.89875,0 1.51125,-0.21 1.875,-0.375 l -0.1875,-0.71875 c -0.38875,0.165 -0.8275,0.28125 -1.5625,0.28125 -1.03,0 -1.91625,-0.5775 -1.9375,-1.96875 l 3.96875,0 c 0.0125,-0.10375 0.0625,-0.2575 0.0625,-0.46875 0,-1.04125 -0.49375,-2.65625 -2.34375,-2.65625 z m 21.09375,0 c -1.84875,0 -3.0625,1.2575 -3.0625,3 0,1.73375 1.13875,2.90625 2.84375,2.90625 0.7625,0 1.355,-0.2025 1.625,-0.34375 l -0.1875,-0.78125 c -0.2925,0.13 -0.66625,0.28125 -1.25,0.28125 -1.12375,0 -1.96875,-0.7825 -1.96875,-2.09375 0,-1.18 0.70125,-2.15625 2,-2.15625 0.56125,0 0.9425,0.14125 1.1875,0.28125 l 0.21875,-0.8125 c -0.27875,-0.14 -0.79875,-0.28125 -1.40625,-0.28125 z m 7.59375,0 c -1.64875,0 -2.65625,1.32125 -2.65625,3.03125 0,1.705 1.04,2.875 2.78125,2.875 0.90125,0 1.5425,-0.21 1.90625,-0.375 L 540.625,464.25 c -0.3875,0.165 -0.8275,0.28125 -1.5625,0.28125 -1.03,0 -1.91375,-0.5775 -1.9375,-1.96875 l 3.96875,0 c 0.01,-0.10375 0.0312,-0.2575 0.0312,-0.46875 0,-1.04125 -0.495,-2.65625 -2.34375,-2.65625 z m 6.4375,0 c -0.93875,0 -1.59375,0.5275 -1.875,1.0625 l -0.0625,-0.9375 -0.90625,0 c 0.0338,0.46625 0.0312,0.94625 0.0312,1.53125 l 0,4.125 1.03125,0 0,-3.40625 c 0,-0.17625 0.0163,-0.34 0.0625,-0.46875 0.1775,-0.5725 0.69625,-1.0625 1.375,-1.0625 0.9725,0 1.3125,0.745 1.3125,1.65625 l 0,3.28125 1.03125,0 0,-3.375 c 0,-1.94375 -1.21875,-2.40625 -2,-2.40625 z m 6.3125,0 c -1.8475,0 -3.03125,1.2575 -3.03125,3 0,1.73375 1.1075,2.90625 2.8125,2.90625 0.7625,0 1.355,-0.2025 1.625,-0.34375 l -0.1875,-0.78125 c -0.29,0.13 -0.6675,0.28125 -1.25,0.28125 -1.12375,0 -1.96875,-0.7825 -1.96875,-2.09375 0,-1.18 0.7025,-2.15625 2,-2.15625 0.56125,0 0.94375,0.14125 1.1875,0.28125 l 0.25,-0.8125 c -0.28125,-0.14 -0.82875,-0.28125 -1.4375,-0.28125 z m 4.875,0 c -1.65125,0 -2.65625,1.32125 -2.65625,3.03125 0,1.705 1.0375,2.875 2.78125,2.875 0.9,0 1.5125,-0.21 1.875,-0.375 L 558.25,464.25 c -0.385,0.165 -0.85625,0.28125 -1.59375,0.28125 -1.02875,0 -1.915,-0.5775 -1.9375,-1.96875 l 4,0 c 0.01,-0.10375 0.0312,-0.2575 0.0312,-0.46875 0,-1.04125 -0.4975,-2.65625 -2.34375,-2.65625 z m 5.34375,0 c -1.2175,0 -1.96875,0.74625 -1.96875,1.65625 0,0.67875 0.4825,1.2325 1.5,1.59375 0.76,0.2825 1.0625,0.53875 1.0625,1.03125 0,0.4675 -0.34125,0.84375 -1.09375,0.84375 -0.5125,0 -1.07125,-0.20625 -1.375,-0.40625 l -0.25,0.78125 c 0.39625,0.2325 0.97625,0.40625 1.59375,0.40625 1.34625,0 2.125,-0.725 2.125,-1.71875 0,-0.8425 -0.51625,-1.31375 -1.5,-1.6875 -0.73625,-0.28125 -1.0625,-0.50125 -1.0625,-0.96875 0,-0.42125 0.32875,-0.78125 0.9375,-0.78125 0.52625,0 0.93375,0.20375 1.15625,0.34375 l 0.25,-0.75 c -0.3175,-0.18625 -0.8025,-0.34375 -1.375,-0.34375 z m -129.5625,0.125 0,5.65625 1.03125,0 0,-5.65625 -1.03125,0 z m 2.0625,0 2.15625,5.65625 0.96875,0 2.21875,-5.65625 -1.0625,0 -1.09375,3.1875 c -0.18625,0.51625 -0.37,0.97 -0.5,1.4375 l -0.0312,0 c -0.1175,-0.4675 -0.28125,-0.92125 -0.46875,-1.4375 l -1.09375,-3.1875 -1.09375,0 z m 20.65625,0 0,5.65625 1.03125,0 0,-5.65625 -1.03125,0 z m 5.875,0 2.09375,5.21875 c 0.0475,0.12875 0.0625,0.19125 0.0625,0.25 l -0.0937,0.25 c -0.235,0.52875 -0.5625,0.93375 -0.84375,1.15625 -0.305,0.25625 -0.6475,0.42 -0.90625,0.5 l 0.25,0.875 c 0.25625,-0.0462 0.745,-0.2425 1.25,-0.6875 0.70125,-0.60875 1.23125,-1.59125 1.96875,-3.53125 l 1.53125,-4.03125 -1.09375,0 -1.125,3.3125 c -0.14125,0.41125 -0.23875,0.845 -0.34375,1.1875 l -0.0312,0 c -0.0937,-0.3425 -0.245,-0.7825 -0.375,-1.15625 l -1.21875,-3.34375 -1.125,0 z m 44.3125,0 0,5.65625 1.03125,0 0,-5.65625 -1.03125,0 z m 28.6875,0 0,5.65625 1.03125,0 0,-5.65625 -1.03125,0 z m -91.0625,0.59375 c 1.15875,0 1.44875,1.0325 1.4375,1.6875 l -3,0 c 0.0813,-0.7125 0.52375,-1.6875 1.5625,-1.6875 z m 67.28125,0 c 1.15625,0 1.45125,1.0325 1.4375,1.6875 l -3,0 c 0.08,-0.7125 0.52375,-1.6875 1.5625,-1.6875 z m 28.6875,0 c 1.15875,0 1.44875,1.0325 1.4375,1.6875 l -3,0 c 0.0825,-0.7125 0.52375,-1.6875 1.5625,-1.6875 z m 17.625,0 c 1.16,0 1.44875,1.0325 1.4375,1.6875 l -3,0 c 0.08,-0.7125 0.5225,-1.6875 1.5625,-1.6875 z m -84.4375,0.0312 c 1.21625,0 1.6875,1.22625 1.6875,2.1875 0,1.27375 -0.73625,2.1875 -1.71875,2.1875 -1.005,0 -1.71875,-0.915 -1.71875,-2.15625 0,-1.07375 0.5325,-2.21875 1.75,-2.21875 z m 19.78125,0.0625 c 1.0875,0 1.65625,0.9575 1.65625,2.09375 0,1.29625 -0.63125,2.1875 -1.71875,2.1875 -0.735,0 -1.345,-0.475 -1.53125,-1.1875 -0.0238,-0.13 -0.0625,-0.28375 -0.0625,-0.4375 l 0,-0.96875 c 0,-0.14125 0.06,-0.2775 0.0937,-0.40625 0.20125,-0.77375 0.85875,-1.28125 1.5625,-1.28125 z m 6.65625,0 c 1.085,0 1.65625,0.9575 1.65625,2.09375 0,1.29625 -0.62875,2.1875 -1.71875,2.1875 -0.73375,0 -1.34375,-0.475 -1.53125,-1.1875 -0.0238,-0.13 -0.0312,-0.28375 -0.0312,-0.4375 l 0,-0.96875 c 0,-0.14125 0.0263,-0.2775 0.0625,-0.40625 0.1975,-0.77375 0.8575,-1.28125 1.5625,-1.28125 z m 17.71875,0 c 0.77375,0 1.345,0.5325 1.5,1.1875 0.0312,0.13 0.0312,0.3075 0.0312,0.4375 l 0,0.96875 c 0,0.16125 0,0.29625 -0.0312,0.4375 -0.19,0.77125 -0.8425,1.21875 -1.53125,1.21875 -1.1125,0 -1.65625,-0.9475 -1.65625,-2.09375 0,-1.2525 0.62625,-2.15625 1.6875,-2.15625 z"
             transform="matrix(0.8,0,0,-0.8,-335.35085,365.86643)"
             id="path5070"
             style="fill:#050301;fill-opacity:1;fill-rule:nonzero;stroke:none" /></g><g
           transform="translate(472.4102,145.7188)"
           id="g5072" /><g
           transform="translate(480.125,146.9443)"
           id="g5078" /><g
           transform="translate(487.1748,145.1191)"
           id="g5082" /><g
           transform="translate(488.9971,145.5313)"
           id="g5086" /><g
           transform="translate(491.9502,143.2578)"
           id="g5090" /><g
           transform="translate(498.9561,148.0303)"
           id="g5096" /><g
           transform="translate(501.3682,146.9443)"
           id="g5100" /><g
           transform="translate(507.958,144.6719)"
           id="g5104" /><g
           transform="translate(512.6797,142.416)"
           id="g5108" /><g
           transform="translate(520.4326,145.0352)"
           id="g5112" /><g
           transform="translate(523.8613,144.2598)"
           id="g5116" /><g
           transform="translate(529.1914,144.2598)"
           id="g5120" /><g
           transform="translate(534.5311,142.416)"
           id="g5124" /><g
           transform="translate(540.9922,145.1191)"
           id="g5130" /><g
           transform="translate(545.9014,145.1016)"
           id="g5134" /><g
           transform="translate(549.9951,143.4072)"
           id="g5138" /><g
           transform="translate(557.917,142.584)"
           id="g5142" /><g
           transform="translate(563.9561,145.1191)"
           id="g5148" /><g
           transform="translate(565.7783,145.7188)"
           id="g5152" /><g
           transform="translate(574.2031,142.584)"
           id="g5156" /><g
           transform="translate(578.0459,145.1191)"
           id="g5160" /><g
           transform="translate(579.7559,143.2578)"
           id="g5164" /><g
           transform="translate(497.1465,187.2598)"
           id="g5168"><path
             d="m 0,0 c 0,-7.871 -6.378,-14.247 -14.248,-14.247 -7.869,0 -14.245,6.376 -14.245,14.247 0,7.864 6.376,14.245 14.245,14.245 C -6.378,14.245 0,7.864 0,0"
             id="path5170"
             style="fill:#ef3136;fill-opacity:1;fill-rule:nonzero;stroke:none" /></g><g
           transform="translate(498.9941,188.0049)"
           id="g5172"><path
             d="M 0,0 C 0,0 -3.27,-26.089 -16.096,-26.101 -28.92,-26.089 -32.196,0 -32.196,0 c 0,0 -1.943,-15.52 0.225,-31.96 l 15.724,0 0.151,0 0.153,0 15.729,0 C 1.95,-15.52 0,0 0,0"
             id="path5174"
             style="fill:#050301;fill-opacity:1;fill-rule:nonzero;stroke:none" /></g></g></g></g></svg>